<?xml version="1.0"?><svg xmlns="http://www.w3.org/2000/svg"  viewBox="0 0 64 64" width="64px" height="64px">    <path d="M 32 3 C 16.01 3 3 16.009 3 32 C 3 47.991 16.01 61 32 61 C 47.99 61 61 47.991 61 32 C 61 16.009 47.99 3 32 3 z M 32 5 C 46.888 5 59 17.112 59 32 C 59 46.888 46.888 59 32 59 C 17.112 59 5 46.888 5 32 C 5 17.112 17.112 5 32 5 z M 32 9 C 19.317 9 9 19.318 9 32 C 9 32.552 9.447 33 10 33 C 10.553 33 11 32.552 11 32 C 11 20.42 20.421 11 32 11 C 43.579 11 53 20.42 53 32 C 53 43.58 43.579 53 32 53 C 31.447 53 31 53.448 31 54 C 31 54.552 31.447 55 32 55 C 44.683 55 55 44.682 55 32 C 55 19.318 44.683 9 32 9 z M 34.650391 16.384766 C 30.318391 16.384766 27.291969 18.976437 27.292969 22.648438 C 27.262969 23.447437 27.267297 24.791828 27.279297 25.923828 L 25.640625 25.923828 C 24.798625 25.923828 24.111328 26.609125 24.111328 27.453125 L 24.111328 31.162109 C 24.111328 32.006109 24.797625 32.691406 25.640625 32.691406 L 27.291016 32.691406 L 27.291016 45.470703 C 27.291016 46.314703 27.976312 47 28.820312 47 L 33.591797 47 C 34.434797 47 35.119141 46.314609 35.119141 45.474609 L 35.119141 32.693359 L 37.886719 32.693359 C 38.669719 32.693359 39.32125 32.107031 39.40625 31.332031 L 39.818359 27.623047 C 39.866359 27.191047 39.7275 26.757594 39.4375 26.433594 C 39.1485 26.109594 38.733828 25.923828 38.298828 25.923828 L 35.121094 25.923828 L 35.121094 24.804688 C 35.121094 24.252687 35.253281 23.6875 36.238281 23.6875 L 38.357422 23.689453 L 38.359375 23.689453 C 38.767375 23.689453 39.151453 23.530188 39.439453 23.242188 C 39.729453 22.953187 39.888672 22.569156 39.888672 22.160156 L 39.888672 17.914062 C 39.888672 17.070062 39.202375 16.384766 38.359375 16.384766 L 34.650391 16.384766 z M 34.648438 18.384766 L 37.888672 18.384766 L 37.888672 21.6875 L 36.238281 21.685547 C 34.344281 21.685547 33.119141 22.908734 33.119141 24.802734 L 33.119141 26.392578 C 33.119141 27.236578 33.805437 27.923828 34.648438 27.923828 L 37.771484 27.923828 L 37.462891 30.693359 L 34.648438 30.693359 C 33.806437 30.693359 33.119141 31.37675 33.119141 32.21875 L 33.119141 45 L 29.291016 45 L 29.289062 45 L 29.289062 32.21875 C 29.289062 31.37775 28.603766 30.691406 27.759766 30.691406 L 26.111328 30.691406 L 26.111328 27.921875 L 27.753906 27.921875 C 28.167906 27.921875 28.555703 27.760797 28.845703 27.466797 C 29.133703 27.174797 29.288203 26.787906 29.283203 26.378906 C 29.264203 24.703906 29.266016 23.403594 29.291016 22.683594 C 29.291016 20.112594 31.443438 18.384766 34.648438 18.384766 z M 12.003906 37.035156 C 11.874641 37.021031 11.740172 37.032516 11.607422 37.072266 L 9.6914062 37.646484 C 9.1624063 37.805484 8.8634844 38.361625 9.0214844 38.890625 C 9.1514844 39.324625 9.5475156 39.605469 9.9785156 39.605469 C 10.072516 39.605469 10.169625 39.5915 10.265625 39.5625 L 12.181641 38.988281 C 12.710641 38.829281 13.011516 38.271188 12.853516 37.742188 C 12.735016 37.345438 12.391703 37.077531 12.003906 37.035156 z M 13.828125 41.761719 C 13.699656 41.779719 13.573078 41.823531 13.455078 41.894531 L 11.738281 42.921875 C 11.263281 43.205875 11.109578 43.818969 11.392578 44.292969 C 11.579578 44.605969 11.910953 44.779297 12.251953 44.779297 C 12.426953 44.779297 12.603672 44.735672 12.763672 44.638672 L 14.480469 43.611328 C 14.955469 43.327328 15.109172 42.714234 14.826172 42.240234 C 14.613172 41.884734 14.213531 41.707719 13.828125 41.761719 z M 17.136719 45.832031 C 16.880969 45.831531 16.623734 45.927547 16.427734 46.123047 L 15.011719 47.537109 C 14.619719 47.927109 14.619766 48.560172 15.009766 48.951172 C 15.204766 49.147172 15.46175 49.244141 15.71875 49.244141 C 15.97475 49.244141 16.228828 49.147125 16.423828 48.953125 L 17.839844 47.539062 C 18.231844 47.149063 18.231797 46.517953 17.841797 46.126953 C 17.646797 45.931453 17.392469 45.832531 17.136719 45.832031 z M 21.34375 49.017578 C 20.957781 48.962594 20.558703 49.136688 20.345703 49.492188 L 19.316406 51.207031 C 19.032406 51.681031 19.184203 52.294125 19.658203 52.578125 C 19.819203 52.675125 19.997828 52.722656 20.173828 52.722656 C 20.513828 52.722656 20.84425 52.548328 21.03125 52.236328 L 22.060547 50.523438 C 22.344547 50.049437 22.19275 49.434391 21.71875 49.150391 C 21.60025 49.079141 21.472406 49.035906 21.34375 49.017578 z M 25.816406 51.097656 C 25.428703 51.139562 25.086047 51.406734 24.966797 51.802734 L 24.388672 53.716797 C 24.228672 54.245797 24.528641 54.804844 25.056641 54.964844 C 25.153641 54.993844 25.249703 55.007812 25.345703 55.007812 C 25.774703 55.007813 26.172734 54.728875 26.302734 54.296875 L 26.880859 52.380859 C 27.040859 51.851859 26.740891 51.294766 26.212891 51.134766 C 26.080391 51.095266 25.945641 51.083688 25.816406 51.097656 z"/></svg>